<?xml version="1.0" standalone="no"?>
<!DOCTYPE svg PUBLIC "-//W3C//DTD SVG 20010904//EN"
 "http://www.w3.org/TR/2001/REC-SVG-20010904/DTD/svg10.dtd">
<svg version="1.0" xmlns="http://www.w3.org/2000/svg"
 width="700.000000pt" height="700.000000pt" viewBox="0 0 700.000000 700.000000"
 preserveAspectRatio="xMidYMid meet">
<metadata>
Created by potrace 1.14, written by Peter Selinger 2001-2017
</metadata>
<g transform="translate(0.000000,700.000000) scale(0.100000,-0.100000)"
fill="#000000" stroke="none">
<path d="M1400 4955 l0 -645 645 0 645 0 0 645 0 645 -645 0 -645 0 0 -645z"/>
<path d="M4310 4955 l0 -645 645 0 645 0 0 645 0 645 -645 0 -645 0 0 -645z"/>
<path d="M1400 3500 l0 -652 373 4 c414 5 430 7 567 75 110 55 224 171 278
284 57 118 66 158 66 289 0 131 -9 171 -66 289 -54 113 -168 229 -278 284
-137 68 -153 70 -567 75 l-373 4 0 -652z"/>
<path d="M4864 4140 c-138 -20 -259 -83 -365 -190 -122 -122 -189 -282 -189
-450 0 -287 201 -547 485 -627 50 -14 122 -17 433 -21 l372 -4 0 651 0 651
-342 -1 c-189 -1 -366 -5 -394 -9z"/>
<path d="M1400 2045 l0 -645 645 0 645 0 0 645 0 645 -645 0 -645 0 0 -645z"/>
<path d="M3360 2674 c-218 -46 -408 -224 -481 -449 -22 -67 -23 -88 -27 -447
l-4 -378 652 0 652 0 -4 373 c-5 414 -7 429 -75 567 -55 109 -170 223 -283
279 -139 68 -284 87 -430 55z"/>
<path d="M4310 2045 l0 -645 645 0 645 0 0 645 0 645 -645 0 -645 0 0 -645z"/>
</g>
</svg>
