<svg width="100" height="100" viewBox="0 0 100 100" fill="none" xmlns="http://www.w3.org/2000/svg">
<path d="M61.6327 61.1327H61.1327V61.6327V80V80.5H61.6327H80H80.5V80V61.6327V61.1327H80H61.6327ZM61.6327 19.5H61.1327V20V38.3673V38.8673H61.6327H80H80.5V38.3673V20V19.5H80H61.6327ZM80.5 40.8163V40.3163H80H70.8163C65.4682 40.3163 61.1327 44.6519 61.1327 50C61.1327 55.3481 65.4682 59.6837 70.8163 59.6837H80H80.5V59.1837V40.8163ZM59.1837 80.5H59.6837V80V70.8163C59.6837 65.4682 55.3481 61.1327 50 61.1327C44.6519 61.1327 40.3163 65.4682 40.3163 70.8163V80V80.5H40.8163H59.1837ZM20 61.1327H19.5V61.6327V80V80.5H20H38.3673H38.8673V80V61.6327V61.1327H38.3673H20ZM20 40.3163H19.5V40.8163V59.1837V59.6837H20H29.1837C34.5318 59.6837 38.8673 55.3481 38.8673 50C38.8673 44.6519 34.5318 40.3163 29.1837 40.3163H20ZM20 19.5H19.5V20V38.3673V38.8673H20H38.3673H38.8673V38.3673V20V19.5H38.3673H20Z" fill="url(#paint0_linear_201_2)" stroke="white"/>
<defs>
<linearGradient id="paint0_linear_201_2" x1="20" y1="20" x2="80" y2="80" gradientUnits="userSpaceOnUse">
<stop stop-color="#575757"/>
<stop offset="1"/>
</linearGradient>
</defs>
</svg>
