<svg width="100" height="100" viewBox="0 0 100 100" fill="none" xmlns="http://www.w3.org/2000/svg">
<rect width="100" height="100" rx="50" fill="white"/>
<path d="M59.6939 59.6939H75V75H59.6939V59.6939Z" fill="url(#paint0_linear_201_2)"/>
<path d="M59.6939 25H75V40.3061H59.6939V25Z" fill="url(#paint1_linear_201_2)"/>
<path d="M59.6939 50C59.6939 45.7733 63.1203 42.3469 67.3469 42.3469H75V57.6531H67.3469C63.1203 57.6531 59.6939 54.2267 59.6939 50V50Z" fill="url(#paint2_linear_201_2)"/>
<path d="M42.3469 67.3469C42.3469 63.1203 45.7733 59.6939 50 59.6939V59.6939C54.2267 59.6939 57.6531 63.1203 57.6531 67.3469V75H42.3469V67.3469Z" fill="url(#paint3_linear_201_2)"/>
<path d="M25 59.6939H40.3061V75H25V59.6939Z" fill="url(#paint4_linear_201_2)"/>
<path d="M25 42.3469H32.6531C36.8797 42.3469 40.3061 45.7733 40.3061 50V50C40.3061 54.2267 36.8797 57.6531 32.6531 57.6531H25V42.3469Z" fill="url(#paint5_linear_201_2)"/>
<path d="M25 25H40.3061V40.3061H25V25Z" fill="url(#paint6_linear_201_2)"/>
<defs>
<linearGradient id="paint0_linear_201_2" x1="25" y1="25" x2="75" y2="75" gradientUnits="userSpaceOnUse">
<stop stop-color="#575757"/>
<stop offset="1"/>
</linearGradient>
<linearGradient id="paint1_linear_201_2" x1="25" y1="25" x2="75" y2="75" gradientUnits="userSpaceOnUse">
<stop stop-color="#575757"/>
<stop offset="1"/>
</linearGradient>
<linearGradient id="paint2_linear_201_2" x1="25" y1="25" x2="75" y2="75" gradientUnits="userSpaceOnUse">
<stop stop-color="#575757"/>
<stop offset="1"/>
</linearGradient>
<linearGradient id="paint3_linear_201_2" x1="25" y1="25" x2="75" y2="75" gradientUnits="userSpaceOnUse">
<stop stop-color="#575757"/>
<stop offset="1"/>
</linearGradient>
<linearGradient id="paint4_linear_201_2" x1="25" y1="25" x2="75" y2="75" gradientUnits="userSpaceOnUse">
<stop stop-color="#575757"/>
<stop offset="1"/>
</linearGradient>
<linearGradient id="paint5_linear_201_2" x1="25" y1="25" x2="75" y2="75" gradientUnits="userSpaceOnUse">
<stop stop-color="#575757"/>
<stop offset="1"/>
</linearGradient>
<linearGradient id="paint6_linear_201_2" x1="25" y1="25" x2="75" y2="75" gradientUnits="userSpaceOnUse">
<stop stop-color="#575757"/>
<stop offset="1"/>
</linearGradient>
</defs>
</svg>
